PathFileType  4	(X/Y/Z) C:\Users\antoi\Documents\MyRepositories\mobilecap\ResultsAnalysis
DataRate	CameraRate	NumFrames	NumMarkers	Units	OrigDataRate	OrigDataStartFrame	OrigNumFrames
100.0	100.0	4	51	mm	100.0	101	160
Frame#	Time	r_knee			r_shank_antsup			r_ankle			r_calc			r_5meta			r_toe			L_knee			L_shank_antsup			L_ankle			L_calc			L_5meta			L_toe			r_sh2			r_sh3			r_sh4			L_sh2			L_sh3			r_thigh1			r_thigh2			r_thigh3			r_thigh4			r_thigh5			L_thigh1			L_thigh2			L_thigh3			L_thigh4			r.ASIS			r.PSIS			L.ASIS			L.PSIS			C7			R_Shoulder			L_Shoulder			R_Sternum			L_Sternum			R_humerus			R_elbow_med			R_elbow_lat			R_forearm			R_wrist_radius			R_wrist_ulna			L_humerus			L_elbow_med			L_elbow_lat			L_forearm			L_wrist_radius			L_wrist_ulna			R_HJC			L_HJC			R_HJC_reg			L_HJC_reg			
		X1	Y1	Z1	X2	Y2	Z2	X3	Y3	Z3	X4	Y4	Z4	X5	Y5	Z5	X6	Y6	Z6	X7	Y7	Z7	X8	Y8	Z8	X9	Y9	Z9	X10	Y10	Z10	X11	Y11	Z11	X12	Y12	Z12	X13	Y13	Z13	X14	Y14	Z14	X15	Y15	Z15	X16	Y16	Z16	X17	Y17	Z17	X18	Y18	Z18	X19	Y19	Z19	X20	Y20	Z20	X21	Y21	Z21	X22	Y22	Z22	X23	Y23	Z23	X24	Y24	Z24	X25	Y25	Z25	X26	Y26	Z26	X27	Y27	Z27	X28	Y28	Z28	X29	Y29	Z29	X30	Y30	Z30	X31	Y31	Z31	X32	Y32	Z32	X33	Y33	Z33	X34	Y34	Z34	X35	Y35	Z35	X36	Y36	Z36	X37	Y37	Z37	X38	Y38	Z38	X39	Y39	Z39	X40	Y40	Z40	X41	Y41	Z41	X42	Y42	Z42	X43	Y43	Z43	X44	Y44	Z44	X45	Y45	Z45	X46	Y46	Z46	X47	Y47	Z47	X48	Y48	Z48	X49	Y49	Z49	X50	Y50	Z50	X51	Y51	Z51	

101	1.00000000	948.24046	580.13587	-88.12688	913.79964	458.57487	-105.59013	654.80763	250.70121	-197.14389	609.98313	264.65596	-269.76526	687.59673	106.42427	-133.31815	759.51366	108.17049	-175.06671	893.79625	542.18686	-498.31984	924.58434	432.65035	-490.29486	785.94604	97.91286	-474.87715	726.46977	77.13466	-417.48810	924.38984	28.95350	-499.42412	959.57871	56.93756	-433.45059	856.33106	366.29655	-141.82762	845.42403	490.57739	-86.36153	783.92932	392.98720	-105.99607	838.31263	444.62296	-517.50305	838.73628	324.86207	-534.98833	993.28160	824.84453	-105.97243	1025.17025	717.05675	-104.99548	990.17948	683.50521	-57.22388	897.53086	796.14067	-53.24351	932.16205	683.12190	-59.97501	960.61651	797.84998	-510.46243	977.30231	660.71248	-503.85378	852.13841	781.95000	-532.62176	869.35254	644.36452	-521.19712	910.40888	1070.48889	-160.96122	730.08390	1103.29453	-284.48726	967.41503	1035.09581	-418.40500	746.79210	1096.51085	-379.36973	848.52084	1531.62883	-544.93717	871.65789	1580.01671	-341.12880	941.68681	1390.61216	-641.56021	967.00017	1478.91091	-452.43805	973.76666	1449.29207	-488.72731	829.33196	1470.61566	-195.52249	716.16059	1262.62413	-165.28887	732.57888	1311.77450	-98.42279	822.42539	1174.51188	-31.60725	851.40050	1068.81332	21.47192	818.82155	1069.73024	48.72678	978.89762	1212.95121	-663.87643	921.86955	1005.31659	-590.72528	961.62457	1011.88151	-661.13592	1078.89667	902.99135	-610.11350	1130.29005	794.65919	-608.75702	1101.85965	779.31780	-644.29269	832.40851	990.84503	-201.46338	874.99572	954.45994	-407.37225	845.98131	982.27632	-204.20896	876.35663	969.94305	-376.71048	
102	1.01000000	964.43575	582.70834	-90.21280	932.47469	459.71736	-107.49265	680.34124	242.47534	-196.62073	634.18067	254.47543	-268.83198	719.46265	99.73018	-132.70600	791.01439	104.45668	-174.98572	896.79877	542.28293	-497.37925	926.74997	432.65016	-489.02718	786.29235	98.64549	-474.49491	726.65371	77.50397	-417.31581	924.45674	29.08673	-499.29386	959.67808	56.58813	-433.23840	878.04145	365.51237	-143.13167	863.25261	489.51383	-87.83472	805.07037	389.74960	-106.81762	840.72051	444.99595	-516.86201	840.71552	325.24443	-534.25655	1005.52652	828.13883	-110.02984	1038.68350	720.80731	-109.62603	1005.71999	686.96620	-60.62509	911.54601	798.31225	-54.37880	947.72268	685.85223	-61.60973	966.87765	797.10362	-509.34703	981.75445	659.80235	-502.43847	858.37692	782.55848	-532.29432	873.68570	644.97804	-520.23195	918.71168	1071.28566	-161.49358	738.17614	1104.17793	-284.68037	975.68587	1035.55180	-418.61315	755.00593	1097.34335	-379.62205	857.90309	1532.46851	-544.88280	880.83029	1580.80618	-341.01014	950.84881	1391.59397	-641.48230	976.18502	1479.56434	-452.23595	982.99752	1449.91680	-488.44177	837.48685	1471.54864	-195.66594	723.49493	1263.89292	-166.21824	739.74484	1312.89117	-99.18322	828.81954	1175.16900	-32.18947	857.22739	1069.07417	20.69380	824.71745	1070.26954	47.97847	989.38231	1214.74475	-664.38277	935.64781	1006.08326	-591.74028	975.63763	1013.71998	-661.96689	1094.49642	906.52794	-610.49054	1147.90748	799.13017	-608.94496	1119.94239	783.33160	-644.69847	840.57846	991.69548	-201.67837	883.04314	955.07334	-407.57029	854.15024	983.04367	-204.75435	884.68936	970.64167	-377.03771	
103	1.02000000	980.26644	585.14359	-92.59501	951.08210	460.73107	-109.54854	706.51750	233.84765	-196.07751	659.21658	243.66880	-267.98345	751.92703	93.11429	-131.77708	823.02866	100.70273	-174.51994	899.77720	542.34572	-496.47450	928.91197	432.58684	-487.73103	786.60489	99.35256	-474.06499	726.88317	77.81674	-417.08259	924.51678	29.24087	-499.14038	959.77150	56.24520	-433.02616	899.91525	364.57116	-144.54443	881.00138	488.15286	-89.48015	826.42595	386.20540	-107.70806	843.14241	445.30247	-516.19757	842.69906	325.53734	-533.48495	1017.44519	831.18799	-114.24988	1051.76050	724.29289	-114.48979	1020.82599	690.21624	-64.32999	925.29580	800.31486	-55.77624	962.95629	688.47401	-63.54309	973.14398	796.27594	-508.11393	986.21575	658.83307	-500.94797	864.67159	783.06535	-531.97022	878.08984	645.42476	-519.34494	927.01320	1071.89036	-161.91797	746.26353	1104.91248	-284.81804	983.85962	1035.80912	-418.65084	763.17229	1098.01729	-379.81436	867.29090	1533.22741	-544.61364	890.14878	1581.37356	-340.65269	959.94434	1392.49018	-641.31747	985.40916	1480.02822	-451.89076	992.23769	1450.37991	-488.03701	845.87483	1472.21403	-195.59170	730.92331	1264.97369	-166.91510	747.08504	1313.78248	-99.70584	835.34045	1175.53479	-32.62067	863.16362	1068.97348	19.98641	830.75429	1070.48695	47.33309	999.60239	1216.42074	-664.93049	949.22935	1006.84042	-592.62243	989.38076	1015.53423	-662.70100	1109.79064	910.04778	-610.85617	1165.22838	803.64380	-609.10937	1137.69521	787.37864	-645.03702	848.68312	992.38372	-201.78702	891.02585	955.49380	-407.65615	862.28993	983.67277	-205.14632	892.90942	971.18715	-377.17153	
104	1.03000000	995.68058	587.40575	-95.27798	969.57319	461.64811	-111.75836	733.31233	224.90220	-195.49702	685.10503	232.34086	-267.19207	784.93513	86.65950	-130.52951	855.49946	96.98442	-173.66288	902.71535	542.37152	-495.62941	931.04209	432.45888	-486.42626	786.87982	100.01346	-473.57848	727.16037	78.05361	-416.77803	924.56587	29.41896	-498.96624	959.88502	55.92531	-432.80275	921.89836	363.51228	-146.01442	898.63035	486.53887	-91.29351	847.93652	382.43052	-108.64682	845.54567	445.53427	-515.50901	844.65042	325.72951	-532.67234	1029.00550	833.95057	-118.56839	1064.39623	727.47434	-119.50453	1035.45493	693.20589	-68.28123	938.75361	802.10407	-57.41567	977.80749	690.93898	-65.74541	979.39261	795.36122	-506.80525	990.65986	657.80022	-499.42627	870.99496	783.47819	-531.65586	882.54112	645.71398	-518.54682	935.31943	1072.28787	-162.24745	754.36483	1105.48998	-284.90134	991.95105	1035.87568	-418.57289	771.30966	1098.52566	-379.95450	876.70233	1533.90026	-544.11769	899.60496	1581.71568	-340.05484	968.99258	1393.29003	-641.05694	994.67548	1480.30043	-451.39242	1001.49420	1450.68425	-487.50718	854.48522	1472.59426	-195.29767	738.46617	1265.83034	-167.37943	754.61070	1314.42117	-99.99212	841.99803	1175.58757	-32.91347	869.20233	1068.50446	19.36010	836.93491	1070.34778	46.78533	1009.59547	1217.96225	-665.49695	962.56073	1007.57607	-593.40535	1002.81638	1017.25489	-663.35883	1124.76691	913.52170	-611.19701	1182.22385	808.17144	-609.24662	1155.09829	791.42933	-645.31104	856.74570	992.89269	-201.81694	898.95685	955.72678	-407.66367	870.40811	984.14996	-205.40561	901.02657	971.56709	-377.15879	
